#N canvas -10 34 1221 607 12;
#X msg 14 39 \; pd dsp \$1;
#X obj 13 12 tgl 15 0 empty empty empty 17 7 0 10 -262144 -1 -1 1 1
;
#N canvas 937 505 546 368 oscSend 0;
#X msg 158 207 disconnect;
#X obj 61 253 netsend -u -b;
#X obj 59 55 list prepend send;
#X obj 59 80 list trim;
#X obj 59 29 r oscOut;
#X obj 147 108 loadbang;
#X msg 150 175 connect 127.0.0.1 8889;
#X text 341 146 send to port 8889;
#X msg 147 148 connect localhost 8889;
#X connect 0 0 1 0;
#X connect 2 0 3 0;
#X connect 3 0 1 0;
#X connect 4 0 2 0;
#X connect 5 0 8 0;
#X connect 6 0 1 0;
#X connect 8 0 1 0;
#X restore 15 114 pd oscSend;
#N canvas 690 63 537 471 oscRecieve 0;
#X obj 55 184 netreceive -u -b;
#X msg 78 143 listen 0;
#X text 152 143 stop listening;
#X text 64 58 packets from network;
#X text 173 177 UDP packets \, binary output, f 13;
#X obj 45 314 print;
#X obj 45 272 oscparse;
#X obj 177 269 oscparse;
#X obj 177 293 list trim;
#X floatatom 59 382 5 0 0 0 - - -;
#X text 241 267 Parse the OSC message;
#X obj 176 322 route unity;
#X obj 51 352 route trigger;
#X obj 59 417 s osctrig;
#X obj 66 84 loadbang;
#X msg 66 115 listen 8888;
#X text 150 114 listen on port 8888;
#X obj 174 355 route tempo;
#X floatatom 176 388 5 0 0 0 - - -;
#X obj 178 423 s osctempo;
#X obj 276 352 route playseq;
#X floatatom 276 389 5 0 0 0 - - -;
#X obj 276 422 s oscplayseq;
#X obj 408 353 route colwall;
#X floatatom 411 395 5 0 0 0 - - -;
#X obj 411 428 s oscwall;
#X connect 0 0 6 0;
#X connect 0 0 7 0;
#X connect 1 0 0 0;
#X connect 6 0 5 0;
#X connect 7 0 8 0;
#X connect 8 0 11 0;
#X connect 9 0 13 0;
#X connect 11 0 12 0;
#X connect 11 0 17 0;
#X connect 11 0 20 0;
#X connect 11 0 23 0;
#X connect 12 0 9 0;
#X connect 14 0 15 0;
#X connect 15 0 0 0;
#X connect 17 0 18 0;
#X connect 18 0 19 0;
#X connect 20 0 21 0;
#X connect 21 0 22 0;
#X connect 23 0 24 0;
#X connect 24 0 25 0;
#X restore 15 147 pd oscRecieve;
#X text 174 281 creation arguments are OSC address;
#X text 156 241 set message to change OSC address;
#X floatatom 20 197 5 0 0 0 - - -;
#X obj 21 281 oscformat PD message;
#X msg 53 242 set PD message;
#X obj 21 316 s oscOut;
#X text 57 8 Turns sound on and off;
#X text 102 114 Sends and recieves messages to and from Unity;
#X obj 590 198 track1;
#X obj 682 196 track2;
#X obj 776 198 track3;
#X obj 662 308 *~;
#X obj 754 305 *~;
#X obj 649 372 dac~;
#X obj 745 369 dac~;
#X obj 925 155 vsl 15 128 0 1.5 0 0 empty empty empty 0 -9 0 10 -262144
-1 -1 3900 1;
#X text 594 164 osc Change;
#X text 498 166 osc activate;
#X connect 1 0 0 0;
#X connect 6 0 7 0;
#X connect 7 0 9 0;
#X connect 8 0 7 0;
#X connect 12 0 15 0;
#X connect 13 0 15 0;
#X connect 14 0 16 0;
#X connect 15 0 17 0;
#X connect 15 0 17 1;
#X connect 16 0 18 0;
#X connect 16 0 18 1;
#X connect 19 0 16 1;
#X connect 19 0 15 1;
#X coords 0 0 10 1 85 60 1 100 100;
