#N canvas 318 153 1318 760 12;
#X obj 123 25 inlet;
#X obj 215 170 metro 4000;
#X floatatom 338 147 5 0 0 0 - - -;
#X obj 163 223 f;
#X obj 211 223 + 1;
#X obj 336 77 loadbang;
#X obj 215 121 tgl 15 0 empty empty empty 17 7 0 10 -262144 -1 -1 0
1;
#X text 26 170 The tempo of the sequence;
#X obj 105 258 mod 8;
#X obj 268 392 select 0 1 2 3 4 5 6 7;
#X obj 550 392 select 0 1 2 3 4 5 6 7;
#X obj 817 315 select 0 1 2 3 4 5 6 7;
#X floatatom 882 437 5 0 0 0 - - -;
#X msg 881 368 1000;
#X msg 929 368 1500;
#X obj 1032 414 bng 15 250 50 0 empty empty empty 17 7 0 10 -262144
-1 -1;
#X text 1051 407 garbage pings;
#X text 498 355 Determines if note is actually played;
#X obj 497 554 instrument2;
#X obj 327 527 + 0;
#X obj 327 604 mtof;
#X floatatom 327 658 5 0 0 0 - - -;
#X obj 641 658 *~;
#X obj 640 720 outlet~;
#X obj 836 72 inlet ypos;
#X obj 836 100 + 3.4;
#X obj 836 127 / 5.2;
#X obj 836 153 clip 0 1;
#X floatatom 836 181 5 0 0 0 - - -;
#X text 18 394 determines WHICH notes are played;
#X text 916 277 sustain length \, determines length of each note played
\, effects note 1 ahead of index;
#X msg 337 114 500;
#X msg 826 367 500;
#X msg 303 465 17;
#X msg 338 465 18;
#X msg 376 465 19;
#X msg 414 465 21;
#X msg 257 465 12.5;
#X obj 836 208 * 0.5;
#X msg 989 160 0;
#X msg 1033 160 0.5;
#X msg 1074 160 1;
#X text 974 135 manual fade in controls;
#X text 605 31 takes y axis input from the unity scene and changes
volume of this track based on it;
#X connect 0 0 6 0;
#X connect 1 0 3 0;
#X connect 2 0 1 1;
#X connect 3 0 4 0;
#X connect 3 0 8 0;
#X connect 4 0 3 1;
#X connect 5 0 31 0;
#X connect 6 0 1 0;
#X connect 8 0 9 0;
#X connect 8 0 10 0;
#X connect 8 0 11 0;
#X connect 9 0 35 0;
#X connect 9 1 36 0;
#X connect 9 3 37 0;
#X connect 9 4 36 0;
#X connect 9 6 33 0;
#X connect 9 7 34 0;
#X connect 10 0 18 2;
#X connect 10 1 18 2;
#X connect 10 3 18 2;
#X connect 10 4 18 2;
#X connect 10 6 18 2;
#X connect 10 7 18 2;
#X connect 11 3 32 0;
#X connect 11 6 32 0;
#X connect 12 0 18 1;
#X connect 13 0 12 0;
#X connect 14 0 12 0;
#X connect 18 0 22 0;
#X connect 18 1 19 1;
#X connect 19 0 20 0;
#X connect 20 0 21 0;
#X connect 21 0 18 0;
#X connect 22 0 23 0;
#X connect 24 0 25 0;
#X connect 25 0 26 0;
#X connect 26 0 27 0;
#X connect 27 0 28 0;
#X connect 28 0 38 0;
#X connect 31 0 2 0;
#X connect 32 0 12 0;
#X connect 33 0 19 0;
#X connect 34 0 19 0;
#X connect 35 0 19 0;
#X connect 36 0 19 0;
#X connect 37 0 19 0;
#X connect 38 0 22 1;
#X connect 39 0 28 0;
#X connect 40 0 28 0;
#X connect 41 0 28 0;
