#N canvas 102 31 958 966 12;
#X obj 172 742 outlet~;
#X obj 266 157 metro 4000;
#X floatatom 354 137 5 0 0 0 - - -;
#X obj 265 123 tgl 15 0 empty empty empty 17 7 0 10 -262144 -1 -1 0
1;
#X msg 355 107 4000;
#X obj 101 85 inlet Activate;
#X obj 423 77 inlet Change;
#N canvas 1062 216 834 669 tune1 1;
#X obj 123 35 inlet;
#X text 9 603 notes;
#X obj 215 170 metro 4000;
#X floatatom 338 147 5 0 0 0 - - -;
#X obj 163 223 f;
#X obj 211 223 + 1;
#X obj 336 77 loadbang;
#X obj 215 121 tgl 15 0 empty empty empty 17 7 0 10 -262144 -1 -1 1
1;
#X msg 336 114 500;
#X text 26 170 The tempo of the sequence;
#X obj 105 258 mod 8;
#X obj 366 505 select 0 1 2 3 4 5 6 7;
#X obj 401 636 outlet notes;
#X obj 317 391 outlet pause;
#X obj 503 437 outlet adsr;
#X obj 253 315 select 0 1 2 3 4 5 6 7;
#X obj 462 295 select 0 1 2 3 4 5 6 7;
#X floatatom 503 408 5 0 0 0 - - -;
#X msg 464 369 500;
#X msg 61 602 -10;
#X msg 95 602 -9;
#X msg 130 602 -8;
#X msg 165 602 -7;
#X msg 200 602 -6;
#X msg 236 602 -5;
#X msg 270 602 -4;
#X msg 305 602 -3;
#X msg 340 602 -2;
#X msg 375 602 -1;
#X msg 410 603 0;
#X msg 479 603 2;
#X msg 444 603 1;
#X msg 514 603 3;
#X msg 549 603 4;
#X msg 585 603 5;
#X msg 619 603 6;
#X msg 654 603 7;
#X msg 689 603 8;
#X msg 724 603 9;
#X msg 761 602 10;
#X msg 503 369 1000;
#X msg 551 369 1500;
#X obj 662 376 bng 15 250 50 0 empty empty empty 17 7 0 10 -262144
-1 -1;
#X text 681 369 garbage pings;
#X obj 210 28 inlet ping;
#X connect 0 0 7 0;
#X connect 2 0 4 0;
#X connect 3 0 2 1;
#X connect 4 0 5 0;
#X connect 4 0 10 0;
#X connect 5 0 4 1;
#X connect 6 0 8 0;
#X connect 7 0 2 0;
#X connect 8 0 3 0;
#X connect 10 0 11 0;
#X connect 10 0 15 0;
#X connect 10 0 16 0;
#X connect 11 0 24 0;
#X connect 11 1 27 0;
#X connect 11 2 26 0;
#X connect 11 5 33 0;
#X connect 11 7 32 0;
#X connect 15 0 13 0;
#X connect 15 1 13 0;
#X connect 15 2 13 0;
#X connect 15 5 13 0;
#X connect 15 7 13 0;
#X connect 16 0 18 0;
#X connect 16 1 41 0;
#X connect 16 2 42 0;
#X connect 16 3 42 0;
#X connect 16 4 40 0;
#X connect 16 5 42 0;
#X connect 16 6 18 0;
#X connect 17 0 14 0;
#X connect 18 0 17 0;
#X connect 19 0 12 0;
#X connect 20 0 12 0;
#X connect 21 0 12 0;
#X connect 22 0 12 0;
#X connect 23 0 12 0;
#X connect 24 0 12 0;
#X connect 25 0 12 0;
#X connect 26 0 12 0;
#X connect 27 0 12 0;
#X connect 28 0 12 0;
#X connect 29 0 12 0;
#X connect 30 0 12 0;
#X connect 31 0 12 0;
#X connect 32 0 12 0;
#X connect 33 0 12 0;
#X connect 34 0 12 0;
#X connect 35 0 12 0;
#X connect 36 0 12 0;
#X connect 37 0 12 0;
#X connect 38 0 12 0;
#X connect 39 0 12 0;
#X connect 40 0 17 0;
#X connect 41 0 17 0;
#X connect 44 0 7 0;
#X restore 46 458 pd tune1;
#N canvas 617 118 826 701 tune2 0;
#X obj 123 35 inlet;
#X text 8 598 notes;
#X obj 215 170 metro 4000;
#X floatatom 336 147 5 0 0 0 - - -;
#X obj 163 223 f;
#X obj 211 223 + 1;
#X obj 336 77 loadbang;
#X obj 216 121 tgl 15 0 empty empty empty 17 7 0 10 -262144 -1 -1 0
1;
#X msg 336 114 500;
#X text 26 170 The tempo of the sequence;
#X obj 105 258 mod 8;
#X obj 364 505 select 0 1 2 3 4 5 6 7;
#X obj 401 636 outlet notes;
#X obj 317 391 outlet pause;
#X obj 503 437 outlet adsr;
#X obj 259 310 select 0 1 2 3 4 5 6 7;
#X obj 446 311 select 0 1 2 3 4 5 6 7;
#X floatatom 503 408 5 0 0 0 - - -;
#X msg 464 369 500;
#X msg 60 597 -10;
#X msg 94 597 -9;
#X msg 129 597 -8;
#X msg 164 597 -7;
#X msg 199 597 -6;
#X msg 235 597 -5;
#X msg 269 597 -4;
#X msg 304 597 -3;
#X msg 339 597 -2;
#X msg 374 597 -1;
#X msg 409 598 0;
#X msg 478 598 2;
#X msg 443 598 1;
#X msg 513 598 3;
#X msg 548 598 4;
#X msg 584 598 5;
#X msg 618 598 6;
#X msg 653 598 7;
#X msg 688 598 8;
#X msg 723 598 9;
#X msg 503 369 1000;
#X msg 551 369 1500;
#X obj 654 369 bng 15 250 50 0 empty empty empty 17 7 0 10 -262144
-1 -1;
#X text 673 362 garbage pings;
#X msg 766 599 10;
#X text 236 276 determines if note is played;
#X text 447 287 determines length of note sustain;
#X connect 0 0 7 0;
#X connect 2 0 4 0;
#X connect 3 0 2 1;
#X connect 4 0 5 0;
#X connect 4 0 10 0;
#X connect 5 0 4 1;
#X connect 6 0 8 0;
#X connect 7 0 2 0;
#X connect 8 0 3 0;
#X connect 10 0 11 0;
#X connect 10 0 15 0;
#X connect 10 0 16 0;
#X connect 11 0 28 0;
#X connect 11 1 29 0;
#X connect 11 2 31 0;
#X connect 11 3 29 0;
#X connect 11 4 27 0;
#X connect 11 7 26 0;
#X connect 11 8 28 0;
#X connect 15 0 13 0;
#X connect 15 1 13 0;
#X connect 15 2 13 0;
#X connect 15 3 13 0;
#X connect 15 4 13 0;
#X connect 15 7 13 0;
#X connect 16 0 18 0;
#X connect 16 3 40 0;
#X connect 16 4 41 0;
#X connect 16 5 41 0;
#X connect 16 6 18 0;
#X connect 17 0 14 0;
#X connect 18 0 17 0;
#X connect 19 0 12 0;
#X connect 20 0 12 0;
#X connect 21 0 12 0;
#X connect 22 0 12 0;
#X connect 23 0 12 0;
#X connect 24 0 12 0;
#X connect 25 0 12 0;
#X connect 26 0 12 0;
#X connect 27 0 12 0;
#X connect 28 0 12 0;
#X connect 29 0 12 0;
#X connect 30 0 12 0;
#X connect 31 0 12 0;
#X connect 32 0 12 0;
#X connect 33 0 12 0;
#X connect 34 0 12 0;
#X connect 35 0 12 0;
#X connect 36 0 12 0;
#X connect 37 0 12 0;
#X connect 38 0 12 0;
#X connect 39 0 17 0;
#X connect 40 0 17 0;
#X connect 43 0 12 0;
#X restore 123 457 pd tune2;
#N canvas 188 98 833 699 tune3 0;
#X obj 123 35 inlet;
#X text 9 595 notes;
#X obj 215 170 metro 4000;
#X floatatom 336 147 5 0 0 0 - - -;
#X obj 163 223 f;
#X obj 211 223 + 1;
#X obj 336 77 loadbang;
#X obj 215 121 tgl 15 0 empty empty empty 17 7 0 10 -262144 -1 -1 0
1;
#X msg 336 114 500;
#X text 26 170 The tempo of the sequence;
#X obj 105 258 mod 8;
#X obj 366 505 select 0 1 2 3 4 5 6 7;
#X obj 401 636 outlet notes;
#X obj 317 391 outlet pause;
#X obj 503 437 outlet adsr;
#X obj 259 310 select 0 1 2 3 4 5 6 7;
#X obj 446 311 select 0 1 2 3 4 5 6 7;
#X floatatom 503 408 5 0 0 0 - - -;
#X msg 464 369 500;
#X msg 61 594 -10;
#X msg 95 594 -9;
#X msg 130 594 -8;
#X msg 165 594 -7;
#X msg 200 594 -6;
#X msg 236 594 -5;
#X msg 270 594 -4;
#X msg 305 594 -3;
#X msg 340 594 -2;
#X msg 375 594 -1;
#X msg 410 595 0;
#X msg 479 595 2;
#X msg 444 595 1;
#X msg 514 595 3;
#X msg 549 595 4;
#X msg 585 595 5;
#X msg 619 595 6;
#X msg 654 595 7;
#X msg 689 595 8;
#X msg 724 595 9;
#X msg 503 369 1000;
#X msg 551 369 1500;
#X msg 761 595 10;
#X obj 633 357 bng 15 250 50 0 empty empty empty 17 7 0 10 -262144
-1 -1;
#X connect 0 0 7 0;
#X connect 2 0 4 0;
#X connect 3 0 2 1;
#X connect 4 0 5 0;
#X connect 4 0 10 0;
#X connect 5 0 4 1;
#X connect 6 0 8 0;
#X connect 7 0 2 0;
#X connect 8 0 3 0;
#X connect 10 0 11 0;
#X connect 10 0 15 0;
#X connect 10 0 16 0;
#X connect 11 0 29 0;
#X connect 11 1 30 0;
#X connect 11 2 33 0;
#X connect 11 3 32 0;
#X connect 11 4 34 0;
#X connect 11 6 33 0;
#X connect 11 7 32 0;
#X connect 15 0 13 0;
#X connect 15 1 13 0;
#X connect 15 2 13 0;
#X connect 15 3 13 0;
#X connect 15 4 13 0;
#X connect 15 6 13 0;
#X connect 15 7 13 0;
#X connect 16 0 18 0;
#X connect 16 3 39 0;
#X connect 16 4 42 0;
#X connect 16 5 18 0;
#X connect 17 0 14 0;
#X connect 18 0 17 0;
#X connect 19 0 12 0;
#X connect 20 0 12 0;
#X connect 21 0 12 0;
#X connect 22 0 12 0;
#X connect 23 0 12 0;
#X connect 24 0 12 0;
#X connect 25 0 12 0;
#X connect 26 0 12 0;
#X connect 27 0 12 0;
#X connect 28 0 12 0;
#X connect 29 0 12 0;
#X connect 30 0 12 0;
#X connect 31 0 12 0;
#X connect 32 0 12 0;
#X connect 33 0 12 0;
#X connect 34 0 12 0;
#X connect 35 0 12 0;
#X connect 36 0 12 0;
#X connect 37 0 12 0;
#X connect 38 0 12 0;
#X connect 39 0 17 0;
#X connect 40 0 17 0;
#X connect 41 0 12 0;
#X restore 189 456 pd tune3;
#N canvas 119 23 937 696 tune4 0;
#X obj 123 35 inlet;
#X text 14 601 notes;
#X obj 215 170 metro 4000;
#X floatatom 336 147 5 0 0 0 - - -;
#X obj 163 223 f;
#X obj 211 223 + 1;
#X obj 336 77 loadbang;
#X obj 215 121 tgl 15 0 empty empty empty 17 7 0 10 -262144 -1 -1 0
1;
#X msg 336 114 500;
#X text 26 170 The tempo of the sequence;
#X obj 105 258 mod 8;
#X obj 366 505 select 0 1 2 3 4 5 6 7;
#X obj 401 636 outlet notes;
#X obj 317 391 outlet pause;
#X obj 503 437 outlet adsr;
#X obj 259 310 select 0 1 2 3 4 5 6 7;
#X obj 446 311 select 0 1 2 3 4 5 6 7;
#X floatatom 503 408 5 0 0 0 - - -;
#X msg 464 369 500;
#X msg 66 600 -10;
#X msg 100 600 -9;
#X msg 135 600 -8;
#X msg 170 600 -7;
#X msg 205 600 -6;
#X msg 241 600 -5;
#X msg 275 600 -4;
#X msg 310 600 -3;
#X msg 345 600 -2;
#X msg 380 600 -1;
#X msg 415 601 0;
#X msg 484 601 2;
#X msg 449 601 1;
#X msg 519 601 3;
#X msg 554 601 4;
#X msg 590 601 5;
#X msg 624 601 6;
#X msg 659 601 7;
#X msg 694 601 8;
#X msg 729 601 9;
#X msg 503 369 1000;
#X msg 551 369 1500;
#X msg 764 601 10;
#X obj 659 355 bng 15 250 50 0 empty empty empty 17 7 0 10 -262144
-1 -1;
#X connect 0 0 7 0;
#X connect 2 0 4 0;
#X connect 3 0 2 1;
#X connect 4 0 5 0;
#X connect 4 0 10 0;
#X connect 5 0 4 1;
#X connect 6 0 8 0;
#X connect 7 0 2 0;
#X connect 8 0 3 0;
#X connect 10 0 11 0;
#X connect 10 0 15 0;
#X connect 10 0 16 0;
#X connect 11 0 34 0;
#X connect 11 1 35 0;
#X connect 11 2 33 0;
#X connect 11 5 36 0;
#X connect 11 7 37 0;
#X connect 15 0 13 0;
#X connect 15 1 13 0;
#X connect 15 2 13 0;
#X connect 15 5 13 0;
#X connect 15 7 13 0;
#X connect 16 0 18 0;
#X connect 16 1 40 0;
#X connect 16 2 42 0;
#X connect 16 3 42 0;
#X connect 16 4 39 0;
#X connect 16 5 42 0;
#X connect 16 6 18 0;
#X connect 17 0 14 0;
#X connect 18 0 17 0;
#X connect 19 0 12 0;
#X connect 20 0 12 0;
#X connect 21 0 12 0;
#X connect 22 0 12 0;
#X connect 23 0 12 0;
#X connect 24 0 12 0;
#X connect 25 0 12 0;
#X connect 26 0 12 0;
#X connect 27 0 12 0;
#X connect 28 0 12 0;
#X connect 29 0 12 0;
#X connect 30 0 12 0;
#X connect 31 0 12 0;
#X connect 32 0 12 0;
#X connect 33 0 12 0;
#X connect 34 0 12 0;
#X connect 35 0 12 0;
#X connect 36 0 12 0;
#X connect 37 0 12 0;
#X connect 38 0 12 0;
#X connect 39 0 17 0;
#X connect 40 0 17 0;
#X connect 41 0 12 0;
#X restore 261 457 pd tune4;
#X obj 328 546 + 0;
#X obj 328 579 mtof;
#X floatatom 328 612 5 0 0 0 - - -;
#X obj 171 661 instrument1;
#X obj 355 75 loadbang;
#X obj 172 704 *~;
#X floatatom 329 695 5 0 0 0 - - -;
#X obj 330 644 loadbang;
#X obj 282 381 bng 15 250 50 0 empty empty empty 17 7 0 10 -262144
-1 -1;
#X msg 113 300 \$2;
#X obj 112 267 pack f f;
#X floatatom 115 333 5 0 0 0 - - -;
#X obj 111 370 mod 4;
#X obj 111 401 select 0 1 2 3;
#X msg 202 294 \$2;
#X obj 202 267 pack f f;
#X floatatom 200 321 5 0 0 0 - - -;
#X msg 329 670 0.4;
#X obj 423 104 + 10.1;
#X obj 423 160 / 19;
#X obj 423 131 * 4;
#X obj 422 187 mod 4;
#X obj 389 307 print xChange;
#X connect 1 0 21 0;
#X connect 2 0 1 1;
#X connect 3 0 1 0;
#X connect 4 0 2 0;
#X connect 5 0 3 0;
#X connect 5 0 7 1;
#X connect 6 0 29 0;
#X connect 7 0 14 1;
#X connect 7 1 11 0;
#X connect 7 2 14 2;
#X connect 8 0 14 1;
#X connect 8 1 11 0;
#X connect 8 2 14 2;
#X connect 9 0 14 1;
#X connect 9 1 11 0;
#X connect 9 2 14 2;
#X connect 10 0 14 1;
#X connect 10 1 11 0;
#X connect 10 2 14 2;
#X connect 11 0 12 0;
#X connect 12 0 13 0;
#X connect 13 0 14 0;
#X connect 14 0 16 0;
#X connect 14 1 11 1;
#X connect 15 0 4 0;
#X connect 16 0 0 0;
#X connect 17 0 16 1;
#X connect 18 0 28 0;
#X connect 20 0 22 0;
#X connect 20 0 26 1;
#X connect 21 0 20 0;
#X connect 22 0 26 0;
#X connect 22 0 23 0;
#X connect 23 0 24 0;
#X connect 24 0 7 0;
#X connect 24 1 8 0;
#X connect 24 2 9 0;
#X connect 24 3 10 0;
#X connect 24 4 19 0;
#X connect 25 0 27 0;
#X connect 26 0 25 0;
#X connect 27 0 23 0;
#X connect 28 0 17 0;
#X connect 29 0 31 0;
#X connect 30 0 32 0;
#X connect 31 0 30 0;
#X connect 32 0 21 1;
#X connect 32 0 33 0;
