#N canvas -8 -8 1920 997 12;
#X obj 123 35 inlet;
#X text 9 603 notes;
#X obj 215 170 metro 4000;
#X floatatom 338 147 5 0 0 0 - - -;
#X obj 163 223 f;
#X obj 211 223 + 1;
#X obj 336 77 loadbang;
#X obj 215 121 tgl 15 0 empty empty empty 17 7 0 10 -262144 -1 -1 0
1;
#X msg 336 114 500;
#X text 26 170 The tempo of the sequence;
#X obj 105 258 mod 8;
#X obj 366 505 select 0 1 2 3 4 5 6 7;
#X obj 784 432 select 0 1 2 3 4 5 6 7;
#X obj 1068 376 select 0 1 2 3 4 5 6 7;
#X floatatom 1149 526 5 0 0 0 - - -;
#X msg 1068 450 500;
#X msg 61 602 -10;
#X msg 95 602 -9;
#X msg 130 602 -8;
#X msg 165 602 -7;
#X msg 200 602 -6;
#X msg 236 602 -5;
#X msg 270 602 -4;
#X msg 305 602 -3;
#X msg 340 602 -2;
#X msg 375 602 -1;
#X msg 410 603 0;
#X msg 479 603 2;
#X msg 444 603 1;
#X msg 514 603 3;
#X msg 549 603 4;
#X msg 585 603 5;
#X msg 619 603 6;
#X msg 654 603 7;
#X msg 689 603 8;
#X msg 724 603 9;
#X msg 761 602 10;
#X msg 1109 450 1000;
#X msg 1157 450 1500;
#X obj 1268 457 bng 15 250 50 0 empty empty empty 17 7 0 10 -262144
-1 -1;
#X text 1287 450 garbage pings;
#X text 756 390 Determines if note is actually played;
#X obj 895 794 instrument2;
#X obj 397 815 + 0;
#X obj 397 892 mtof;
#X floatatom 397 946 5 0 0 0 - - -;
#X obj 896 867 *~;
#X obj 895 929 outlet~;
#X obj 1327 596 inlet ypos;
#X obj 1327 657 + 3.4;
#X obj 1327 719 / 5.2;
#X obj 1327 791 clip 0 1;
#X floatatom 1352 847 5 0 0 0 - - -;
#X text 85 512 determines WHICH notes are played;
#X text 1152 320 sustain length \, determines length of each note played
\, effects note 1 ahead of index;
#X connect 0 0 7 0;
#X connect 2 0 4 0;
#X connect 3 0 2 1;
#X connect 4 0 5 0;
#X connect 4 0 10 0;
#X connect 5 0 4 1;
#X connect 6 0 8 0;
#X connect 7 0 2 0;
#X connect 8 0 3 0;
#X connect 10 0 11 0;
#X connect 10 0 12 0;
#X connect 10 0 13 0;
#X connect 11 0 30 0;
#X connect 11 1 23 0;
#X connect 11 2 31 0;
#X connect 11 3 24 0;
#X connect 11 4 34 0;
#X connect 11 5 33 0;
#X connect 11 6 34 0;
#X connect 11 7 28 0;
#X connect 12 0 42 2;
#X connect 12 1 42 2;
#X connect 12 2 42 2;
#X connect 12 3 42 2;
#X connect 12 4 42 2;
#X connect 12 5 42 2;
#X connect 12 6 42 2;
#X connect 12 7 42 2;
#X connect 13 0 15 0;
#X connect 13 2 37 0;
#X connect 14 0 42 1;
#X connect 15 0 14 0;
#X connect 16 0 43 0;
#X connect 17 0 43 0;
#X connect 18 0 43 0;
#X connect 19 0 43 0;
#X connect 20 0 43 0;
#X connect 21 0 43 0;
#X connect 22 0 43 0;
#X connect 23 0 43 0;
#X connect 24 0 43 0;
#X connect 25 0 43 0;
#X connect 26 0 43 0;
#X connect 27 0 43 0;
#X connect 28 0 43 0;
#X connect 29 0 43 0;
#X connect 30 0 43 0;
#X connect 31 0 43 0;
#X connect 32 0 43 0;
#X connect 33 0 43 0;
#X connect 34 0 43 0;
#X connect 35 0 43 0;
#X connect 36 0 43 0;
#X connect 37 0 14 0;
#X connect 38 0 14 0;
#X connect 42 0 46 0;
#X connect 42 1 43 1;
#X connect 43 0 44 0;
#X connect 44 0 45 0;
#X connect 45 0 42 0;
#X connect 46 0 47 0;
#X connect 48 0 49 0;
#X connect 49 0 50 0;
#X connect 50 0 51 0;
#X connect 51 0 52 0;
#X connect 52 0 46 1;
