#N canvas 59 204 1189 685 12;
#X obj 316 516 outlet~;
#X obj 288 138 metro 4000;
#X floatatom 376 118 5 0 0 0 - - -;
#X obj 288 104 tgl 15 0 empty empty empty 17 7 0 10 -262144 -1 -1 0
1;
#X obj 237 205 mod 4;
#X msg 377 88 4000;
#X obj 244 63 inlet Activate;
#X obj 131 139 inlet Change;
#X obj 237 236 select 0 1 2 3;
#N canvas 212 48 484 459 tune1 0;
#X obj 123 35 inlet;
#X obj 166 378 outlet;
#X text 165 337 notes;
#X obj 215 170 metro 4000;
#X floatatom 336 147 5 0 0 0 - - -;
#X obj 163 223 f;
#X obj 211 223 + 1;
#X obj 336 77 loadbang;
#X obj 215 121 tgl 15 0 empty empty empty 17 7 0 10 -262144 -1 -1 0
1;
#X msg 336 114 500;
#X text 26 170 The tempo of the sequence;
#X obj 105 258 mod 8;
#X obj 107 296 select 0 1 2 3 4 5 6 7;
#X connect 0 0 8 0;
#X connect 3 0 5 0;
#X connect 4 0 3 1;
#X connect 5 0 6 0;
#X connect 5 0 11 0;
#X connect 6 0 5 1;
#X connect 7 0 9 0;
#X connect 8 0 3 0;
#X connect 9 0 4 0;
#X connect 11 0 12 0;
#X restore 183 292 pd tune1;
#N canvas 0 50 464 436 tune2 0;
#X obj 123 35 inlet;
#X obj 166 378 outlet;
#X text 165 337 notes;
#X obj 215 170 metro 4000;
#X floatatom 336 147 5 0 0 0 - - -;
#X obj 163 223 f;
#X obj 211 223 + 1;
#X obj 336 77 loadbang;
#X obj 215 121 tgl 15 0 empty empty empty 17 7 0 10 -262144 -1 -1 0
1;
#X msg 336 114 500;
#X text 26 170 The tempo of the sequence;
#X obj 105 258 mod 8;
#X obj 107 296 select 0 1 2 3 4 5 6 7;
#X connect 0 0 8 0;
#X connect 3 0 5 0;
#X connect 4 0 3 1;
#X connect 5 0 6 0;
#X connect 5 0 11 0;
#X connect 6 0 5 1;
#X connect 7 0 9 0;
#X connect 8 0 3 0;
#X connect 9 0 4 0;
#X connect 11 0 12 0;
#X restore 249 292 pd tune2;
#N canvas 0 50 444 423 tune3 0;
#X obj 123 35 inlet;
#X obj 166 378 outlet;
#X text 165 337 notes;
#X obj 215 170 metro 4000;
#X floatatom 336 147 5 0 0 0 - - -;
#X obj 163 223 f;
#X obj 211 223 + 1;
#X obj 336 77 loadbang;
#X obj 215 121 tgl 15 0 empty empty empty 17 7 0 10 -262144 -1 -1 0
1;
#X msg 336 114 500;
#X text 26 170 The tempo of the sequence;
#X obj 105 258 mod 8;
#X obj 107 296 select 0 1 2 3 4 5 6 7;
#X connect 0 0 8 0;
#X connect 3 0 5 0;
#X connect 4 0 3 1;
#X connect 5 0 6 0;
#X connect 5 0 11 0;
#X connect 6 0 5 1;
#X connect 7 0 9 0;
#X connect 8 0 3 0;
#X connect 9 0 4 0;
#X connect 11 0 12 0;
#X restore 315 291 pd tune3;
#N canvas 0 50 553 470 tune4 0;
#X obj 123 35 inlet;
#X obj 166 378 outlet;
#X text 165 337 notes;
#X obj 215 170 metro 4000;
#X floatatom 336 147 5 0 0 0 - - -;
#X obj 163 223 f;
#X obj 211 223 + 1;
#X obj 336 77 loadbang;
#X obj 215 121 tgl 15 0 empty empty empty 17 7 0 10 -262144 -1 -1 0
1;
#X msg 336 114 500;
#X text 26 170 The tempo of the sequence;
#X obj 105 258 mod 8;
#X obj 107 296 select 0 1 2 3 4 5 6 7;
#X connect 0 0 8 0;
#X connect 3 0 5 0;
#X connect 4 0 3 1;
#X connect 5 0 6 0;
#X connect 5 0 11 0;
#X connect 6 0 5 1;
#X connect 7 0 9 0;
#X connect 8 0 3 0;
#X connect 9 0 4 0;
#X connect 11 0 12 0;
#X restore 380 291 pd tune4;
#X obj 303 372 + 0;
#X obj 604 274 loadbang;
#X floatatom 604 364 5 0 0 0 - - -;
#X obj 303 405 mtof;
#X floatatom 303 438 5 0 0 0 - - -;
#X text 651 344 Pitch Control;
#X msg 604 309 50, f 4;
#X text 108 177 function that changes number based on location;
#X text 266 478 instrument;
#X connect 2 0 1 1;
#X connect 3 0 1 0;
#X connect 4 0 8 0;
#X connect 5 0 2 0;
#X connect 6 0 3 0;
#X connect 8 0 9 0;
#X connect 8 1 10 0;
#X connect 8 2 11 0;
#X connect 8 3 12 0;
#X connect 9 0 13 0;
#X connect 10 0 13 0;
#X connect 11 0 13 0;
#X connect 12 0 13 0;
#X connect 13 0 16 0;
#X connect 14 0 19 0;
#X connect 15 0 13 1;
#X connect 16 0 17 0;
#X connect 19 0 15 0;
