#N canvas 630 0 1280 966 12;
#X obj 694 714 dac~;
#X obj 978 152 metro 4000;
#X floatatom 1099 129 5 0 0 0 - - -;
#X obj 926 205 f;
#X obj 974 205 + 1;
#X obj 938 580 + 0;
#X obj 1087 560 loadbang;
#X floatatom 1087 650 5 0 0 0 - - -;
#X obj 938 613 mtof;
#X floatatom 938 646 5 0 0 0 - - -;
#X text 1134 630 Pitch Control;
#X obj 1099 59 loadbang;
#X obj 978 103 tgl 15 0 empty empty empty 17 7 0 10 -262144 -1 -1 1
1;
#X msg 1087 595 50, f 4;
#X msg 1099 96 500;
#X text 789 152 The tempo of the sequence;
#X msg 1149 101 250;
#X obj 707 666 instrument;
#X obj 319 317 loadbang;
#X floatatom 318 402 5 0 0 0 - - -;
#X text 346 380 Note Duration Control;
#X msg 319 352 250, f 4;
#X obj 868 240 mod 8;
#X obj 862 323 select 0 1 2 3 4 5 6 7;
#X msg 853 496 -2;
#X msg 896 493 -1;
#X msg 940 493 0;
#X msg 984 494 1;
#X msg 1025 496 2;
#X text 1062 363 the note progression;
#X connect 1 0 3 0;
#X connect 2 0 1 1;
#X connect 3 0 4 0;
#X connect 3 0 22 0;
#X connect 4 0 3 1;
#X connect 5 0 8 0;
#X connect 6 0 13 0;
#X connect 7 0 5 1;
#X connect 8 0 9 0;
#X connect 9 0 17 2;
#X connect 11 0 14 0;
#X connect 12 0 1 0;
#X connect 13 0 7 0;
#X connect 14 0 2 0;
#X connect 16 0 2 0;
#X connect 17 0 0 0;
#X connect 17 0 0 1;
#X connect 18 0 21 0;
#X connect 19 0 17 1;
#X connect 21 0 19 0;
#X connect 22 0 17 0;
#X connect 22 0 23 0;
#X connect 23 0 24 0;
#X connect 23 1 25 0;
#X connect 23 2 26 0;
#X connect 23 3 27 0;
#X connect 23 4 28 0;
#X connect 23 5 27 0;
#X connect 23 6 26 0;
#X connect 23 7 25 0;
#X connect 24 0 5 0;
#X connect 25 0 5 0;
#X connect 26 0 5 0;
#X connect 27 0 5 0;
#X connect 28 0 5 0;
